<?xml version="1.0" encoding="UTF-8"?>
<svg xmlns="http://www.w3.org/2000/svg" viewBox="0 0 2048 2048" role="img" aria-label="TestDog – šťastný">
  <title>TestDog – šťastný</title>
  <ellipse cx="1024" cy="1962" rx="540" ry="62" fill="rgb(76,47,12)" opacity="0.13"/>
  <g><animateTransform attributeName="transform" attributeType="XML" type="rotate" values="-9 1455 1610; 12 1455 1610; -9 1455 1610" dur="0.55s" repeatCount="indefinite"/><ellipse cx="1430" cy="1430" rx="140" ry="240" fill="rgb(168,110,52)"/><path d="M 1501.85 1125.24 C 1525.05 1129.43 1545.84 1134.68 1566.2 1147.11 C 1621.9 1181.07 1658.04 1238.18 1660.14 1303.93 C 1661.34 1341.28 1654.46 1364.76 1635.27 1396.19 C 1665.45 1381.33 1684.73 1365.39 1695.99 1332.04 C 1696.65 1330.06 1697.29 1328.07 1697.89 1326.08 C 1707.99 1370.49 1700.29 1412.23 1675.93 1450.73 C 1647.17 1496.18 1606.26 1517.77 1555.77 1530.91 C 1590.68 1539.85 1632.44 1535.63 1655.97 1505.43 C 1639.77 1579.74 1560.93 1629.23 1486.65 1625.97 C 1481.61 1625.75 1460.67 1622.85 1458.1 1624.24 L 1449.85 1619.01 C 1475.79 1574.99 1488.89 1531.07 1478.35 1479.56 C 1474.67 1461.59 1462.26 1427.33 1449.57 1413.99 C 1461.31 1404.4 1473.6 1394.53 1484.06 1383.6 C 1515.6 1350.67 1535.23 1308.14 1539.81 1262.76 C 1545.14 1207.93 1531.33 1169.67 1501.85 1125.24 z" fill="rgb(168,110,52)" transform="translate(0,0)"></path></g><path d="M 1073.83 113.017 C 1075.55 112.952 1083.04 112.261 1084.25 113.258 C 1084.62 114.294 1081.32 115.379 1080.75 115.59 C 1060.7 125.32 1049.73 134.656 1039.18 154.623 C 1070.2 139.952 1093.76 132.832 1127.99 145.243 C 1132.87 147.055 1137.7 148.973 1142.5 150.994 L 1139.99 154.122 C 1114.74 153.292 1096.13 155.84 1076.49 172.689 C 1154.73 186.028 1209.7 205.414 1273.59 254.812 C 1309.67 249.693 1355.72 236.146 1374.58 201.962 C 1377.4 226.905 1373.23 238.073 1355.08 255.17 C 1397.84 245.75 1432.37 244.228 1451.01 292.196 C 1428.95 276.97 1398.24 279.09 1372.88 281.573 C 1388.35 285.138 1405.25 294.434 1418.32 303.275 C 1437.66 316.499 1455.16 332.221 1470.37 350.034 C 1488.35 371.341 1508.68 398.406 1524.49 421.531 C 1554.71 465.73 1618.71 519.876 1673.24 477.353 C 1670.6 506.363 1665.52 514.962 1639.13 528.34 C 1672.15 543.38 1691.2 559.146 1704.44 594.549 C 1708.85 606.563 1712.04 618.989 1713.97 631.64 C 1697.44 610.393 1677.75 594.019 1652.87 583.275 C 1701.84 622.721 1698.62 698.492 1675.17 751.052 C 1668.61 722.707 1662.66 709.504 1646.16 686.733 C 1646.11 692.087 1646.4 698.044 1645.09 703.138 C 1642.11 737.234 1625.04 776.893 1600.58 800.866 C 1571.95 828.917 1551.87 863.038 1547.29 903.544 C 1542.54 945.725 1538.58 993.571 1494.2 1014.75 C 1460.55 1033.78 1414.23 1023.31 1385 1000.38 C 1345.69 969.533 1331.48 935.7 1324.61 887.63 L 1323.07 887.04 C 1315.49 895.165 1309.43 903.997 1300.7 912.705 C 1287.12 926.262 1273.4 938.624 1259.32 951.618 C 1256.68 954.255 1246.63 962.106 1243.33 964.174 C 1204.12 992.659 1159.74 1011.16 1114.26 1025.93 C 1045.49 1048.25 986.138 1044.78 919.06 1020.22 C 896.481 1011.95 878.935 1005.41 857.192 994.199 C 845.817 988.367 834.672 982.096 823.782 975.399 C 819.146 972.538 811.247 966.83 806.929 964.633 L 805.377 963.861 C 801.862 960.073 795.961 957.911 791.403 952.597 C 776.663 942.486 739.507 902.294 725.132 887.63 C 722.697 901.158 720.444 915.258 716.545 928.46 C 698.345 990.083 624.222 1047.49 559.079 1015.45 C 552.743 1013.36 542.658 1006.09 537.575 1001.59 C 503.374 971.309 508.285 938.151 502.126 900.353 C 499.293 883.736 494.41 867.535 487.587 852.12 C 477.305 828.846 465.521 818.177 448.355 800.521 C 423.115 774.56 407.333 739.67 404.877 703.328 C 403.741 698.123 404.043 692.907 404.049 687.546 C 386.327 711.173 383.218 720.411 374.893 749.488 C 363.355 725.208 357.521 698.61 357.838 671.73 C 358.365 633.551 369.718 609.873 396.428 583.793 C 367.179 599.14 356.973 608.56 335.283 632.385 C 337.019 618.151 340.679 604.219 346.16 590.97 C 360.144 557.66 380.052 541.21 412.44 527.803 C 388.249 516.201 376.052 504.955 375.924 476.022 C 391.506 490.51 410.312 494.463 430.94 491.214 C 501.91 480.035 534.742 398.1 578.464 350.404 C 609.681 316.347 632.284 296.854 675.353 280.759 C 640.583 278.397 632.048 277.303 600.274 291.127 C 617.824 243.12 651.863 245.476 694.649 255.105 L 693.753 254.199 C 678.363 238.347 673.878 225.735 674.069 204.034 C 705.338 238.311 731.332 247.875 777.59 254.211 C 840.411 205.761 915.777 176.287 994.8 169.265 C 999.538 159.487 1004.84 150.32 1012.11 142.191 C 1027.95 124.604 1050.18 114.096 1073.83 113.017 z" fill="rgb(208,142,63)" transform="translate(0,0)"/><path d="M 791.403 952.597 C 791.021 947.597 783.563 932.978 781.471 927.002 C 769.877 894.115 764.261 858.249 770.125 823.487 C 807.066 604.495 1119.49 563.612 1241.86 732.147 C 1277.84 781.671 1290.06 844.587 1275.21 903.979 C 1273.34 911.297 1271.27 918.538 1268.85 925.698 C 1266.17 933.621 1260.21 943.493 1259.32 951.618 C 1256.68 954.255 1246.63 962.106 1243.33 964.174 C 1204.12 992.659 1159.74 1011.16 1114.26 1025.93 C 1045.49 1048.25 986.138 1044.78 919.06 1020.22 C 896.481 1011.95 878.935 1005.41 857.192 994.199 C 845.817 988.367 834.672 982.096 823.782 975.399 C 819.146 972.538 811.247 966.83 806.929 964.633 L 805.377 963.861 C 801.862 960.073 795.961 957.911 791.403 952.597 z" fill="rgb(231,206,184)" transform="translate(0,0)"/><path d="M 1018.56 704.417 C 1050.2 700.809 1113.87 721.401 1034.25 723.328 C 1027.42 723.459 944.9 725.726 992.512 708.088 C 998.866 705.734 1011.41 705.021 1018.56 704.417 z" fill="rgb(231,206,184)" transform="translate(0,0)"/><path d="M 1374.58 201.962 C 1377.4 226.905 1373.23 238.073 1355.08 255.17 C 1397.84 245.75 1432.37 244.228 1451.01 292.196 C 1428.95 276.97 1398.24 279.09 1372.88 281.573 C 1388.35 285.138 1405.25 294.434 1418.32 303.275 C 1437.66 316.499 1455.16 332.221 1470.37 350.034 C 1488.35 371.341 1508.68 398.406 1524.49 421.531 C 1554.71 465.73 1618.71 519.876 1673.24 477.353 C 1670.6 506.363 1665.52 514.962 1639.13 528.34 C 1672.15 543.38 1691.2 559.146 1704.44 594.549 C 1708.85 606.563 1712.04 618.989 1713.97 631.64 C 1697.44 610.393 1677.75 594.019 1652.87 583.275 C 1701.84 622.721 1698.62 698.492 1675.17 751.052 C 1668.61 722.707 1662.66 709.504 1646.16 686.733 C 1646.11 692.087 1646.4 698.044 1645.09 703.138 C 1645.4 621.728 1600.61 569.543 1543.18 518.418 C 1502.21 481.949 1473.93 437.59 1448.11 389.895 C 1417.87 334.023 1356.23 275.148 1289.12 274.887 C 1284.21 268.259 1278.67 261.372 1273.59 254.812 C 1309.67 249.693 1355.72 236.146 1374.58 201.962 z" fill="rgb(231,206,184)" transform="translate(0,0)"/><path d="M 674.069 204.034 C 705.338 238.311 731.332 247.875 777.59 254.211 C 770.167 261.553 767.742 265.274 761.566 273.635 C 712.505 277.323 666.983 300.568 635.229 338.148 C 604.518 374.19 590.233 417.513 562.403 455.855 C 532.755 496.7 498.539 524.452 463.498 559.034 C 426.131 595.912 405.391 650.361 404.877 703.328 C 403.741 698.123 404.043 692.907 404.049 687.546 C 386.327 711.173 383.218 720.411 374.893 749.488 C 363.355 725.208 357.521 698.61 357.838 671.73 C 358.365 633.551 369.718 609.873 396.428 583.793 C 367.179 599.14 356.973 608.56 335.283 632.385 C 337.019 618.151 340.679 604.219 346.16 590.97 C 360.144 557.66 380.052 541.21 412.44 527.803 C 388.249 516.201 376.052 504.955 375.924 476.022 C 391.506 490.51 410.312 494.463 430.94 491.214 C 501.91 480.035 534.742 398.1 578.464 350.404 C 609.681 316.347 632.284 296.854 675.353 280.759 C 640.583 278.397 632.048 277.303 600.274 291.127 C 617.824 243.12 651.863 245.476 694.649 255.105 L 693.753 254.199 C 678.363 238.347 673.878 225.735 674.069 204.034 z" fill="rgb(231,206,184)" transform="translate(0,0)"/><path d="M 1324.61 887.63 C 1317.86 847.783 1311.96 799.219 1319.2 759.205 C 1333.68 679.153 1361.41 607.828 1347.37 524.261 C 1343.28 500.094 1337.57 476.23 1330.28 452.83 C 1326.43 440.584 1321.72 428.564 1318.06 416.284 C 1316.46 410.901 1317.89 407.383 1322.77 404.538 C 1334.67 404.422 1339.99 429.981 1343.39 440.077 C 1363.32 499.272 1372.01 558.932 1367.03 621.367 C 1365.19 643.29 1362.26 665.106 1358.25 686.737 C 1355.52 701.445 1352.09 716.8 1349.97 731.517 C 1336.37 825.775 1384.57 999.61 1494.2 1014.75 C 1460.55 1033.78 1414.23 1023.31 1385 1000.38 C 1345.69 969.533 1331.48 935.7 1324.61 887.63 z" fill="rgb(76,47,12)" transform="translate(0,0)"/><path d="M 559.079 1015.45 C 559.392 1015.3 575.327 1010.92 578.612 1009.82 C 600.666 1002.37 620.683 984.845 635.319 967.05 C 685.496 906.043 707.228 812.428 699.406 734.391 C 696.107 701.471 686.779 668.898 684.331 634.168 C 679.628 567.424 684.405 508.206 705.119 444.516 C 708.669 433.6 712.9 416.803 719.893 407.677 C 721.63 405.411 723.518 404.811 726.209 404.574 C 730.003 405.887 733.935 410.009 732.492 413.978 C 713.971 464.918 698.635 513.78 697.965 568.586 C 697.398 614.927 707.054 659.031 717.733 703.974 C 721.168 718.43 726.177 733.077 728.604 747.81 C 736.242 796.335 732.63 839.715 725.132 887.63 C 722.697 901.158 720.444 915.258 716.545 928.46 C 698.345 990.083 624.222 1047.49 559.079 1015.45 z" fill="rgb(76,47,12)" transform="translate(0,0)"/><path d="M 1073.83 113.017 C 1075.55 112.952 1083.04 112.261 1084.25 113.258 C 1084.62 114.294 1081.32 115.379 1080.75 115.59 C 1078.27 114.373 1076.42 114.02 1073.83 113.017 z" fill="rgb(217,157,96)" transform="translate(0,0)"/><path d="M 805.377 963.861 L 806.929 964.633 C 811.247 966.83 819.146 972.538 823.782 975.399 C 834.672 982.096 845.817 988.367 857.192 994.199 C 878.935 1005.41 896.481 1011.95 919.06 1020.22 C 986.138 1044.78 1045.49 1048.25 1114.26 1025.93 C 1159.74 1011.16 1204.12 992.659 1243.33 964.174 L 1248.03 971.652 C 1289.06 1039.12 1319.3 1147.44 1321.76 1226.56 C 1322.74 1258.36 1319.73 1290.18 1320.79 1319.83 C 1321.45 1334.08 1322.95 1352.63 1324.8 1366.79 C 1363.2 1367.15 1393.88 1373.67 1422.23 1402.38 C 1427.98 1408.13 1433.12 1414.45 1437.56 1421.26 C 1441.4 1419.43 1445.91 1416.34 1449.57 1413.99 C 1462.26 1427.33 1474.67 1461.59 1478.35 1479.56 C 1488.89 1531.07 1475.79 1574.99 1449.85 1619.01 L 1458.1 1624.24 C 1490.68 1643.43 1522.16 1645.31 1558.65 1636.02 C 1526.94 1665.92 1474.3 1678.58 1431.64 1677.47 C 1420.72 1677.23 1409.84 1675.97 1399.15 1673.72 C 1390.16 1682.42 1383.09 1703.19 1376.78 1711.91 C 1374.06 1717.46 1372.63 1721.48 1370.35 1726.95 C 1375.36 1728.95 1396.02 1729.11 1402.81 1729.71 C 1435.17 1732.57 1464.43 1747.2 1481.96 1775.06 C 1503.68 1809.58 1483.18 1849.11 1450.48 1867.25 C 1441.47 1872.15 1431.7 1875.5 1421.58 1877.18 C 1406.73 1879.69 1387.15 1879.17 1371.78 1879.16 L 1306.44 1879 C 1271.43 1955.17 1120.44 1951.81 1077.44 1883.21 C 1072.93 1876.01 1070.53 1869.1 1069.01 1860.87 C 1068.2 1856.49 1070.18 1842.48 1067.11 1840.14 C 1043.12 1841.37 1007.2 1840.04 982.285 1839.93 C 981.25 1849.46 982.329 1860.34 978.86 1869.72 C 974.475 1881.57 966.991 1892.61 957.501 1901.14 C 902.137 1950.88 777.548 1949.9 741.958 1877.27 C 720.498 1879.97 697.407 1879.11 675.687 1879.17 C 664.377 1879.2 644.868 1879.56 634.3 1878.15 C 625.262 1877 616.443 1874.53 608.125 1870.81 C 573.508 1855.45 546.866 1819.83 564.864 1781.37 C 580.67 1748.7 616.887 1730.51 652.164 1729.1 C 658.364 1728.86 681.366 1728.93 685.648 1726.99 C 682.692 1722.85 679.843 1718.62 677.106 1714.33 C 672.866 1709.86 665.266 1696.14 660.632 1690.72 C 651.843 1680.43 642.092 1670.23 633.906 1659.55 C 604.574 1620.78 579.904 1575.33 576.85 1526.14 C 572.148 1450.39 619.317 1371.85 699.676 1365.16 C 708.408 1364.44 717.869 1366.22 726.824 1365.77 L 728.068 1362.63 C 727.647 1352.69 729.388 1332.45 730.001 1321.68 C 729.193 1302.84 728.141 1284.66 727.739 1265.88 C 725.985 1183.91 741.948 1110.64 772.662 1034.86 C 780.779 1014.83 790.782 996.12 798.52 977.182 L 805.377 963.861 z" fill="rgb(208,142,63)" transform="translate(0,0)"/><path d="M 805.377 963.861 L 806.929 964.633 C 811.247 966.83 819.146 972.538 823.782 975.399 C 834.672 982.096 845.817 988.367 857.192 994.199 C 878.935 1005.41 896.481 1011.95 919.06 1020.22 C 986.138 1044.78 1045.49 1048.25 1114.26 1025.93 C 1159.74 1011.16 1204.12 992.659 1243.33 964.174 L 1248.03 971.652 C 1245.69 980.838 1240.07 989.021 1235.58 997.338 C 1157.14 1142.83 942.226 1163.28 836.339 1037.67 C 826.321 1025.79 817.483 1011.93 809.538 998.437 C 805.426 991.589 801.746 984.49 798.52 977.182 L 805.377 963.861 z" fill="rgb(76,47,12)" transform="translate(0,0)"/><path d="M 1030.4 1657.66 C 1036.42 1640.62 1042.38 1622.94 1047.9 1605.71 C 1050.1 1598.81 1057.6 1579.02 1058.46 1572.5 C 1061.59 1548.6 1061.9 1523.19 1063.72 1498.9 C 1064.26 1491.75 1064 1473.65 1067.59 1466.69 C 1068.52 1466.07 1069.45 1465.46 1070.38 1464.85 C 1077 1463.96 1080.11 1466.91 1080.31 1473.46 C 1080.6 1482.74 1080.1 1492.08 1079.77 1501.36 C 1079.17 1517.73 1078.66 1534.11 1078.23 1550.49 C 1076.14 1626.31 1071.91 1701.19 1068.75 1776.91 C 1068.28 1788.28 1065.16 1832.38 1067.11 1840.14 C 1043.12 1841.37 1007.2 1840.04 982.285 1839.93 C 983.15 1810.05 980.189 1770.9 978.989 1740.69 C 975.726 1670.62 973.124 1600.52 971.184 1530.4 C 970.975 1519.59 967.534 1473.75 971.287 1466.89 C 974.891 1464.34 972.927 1465.11 977.475 1464.7 C 990.634 1472.25 981.946 1548.76 986.97 1563.69 C 997.105 1593.79 1016.72 1629.03 1030.4 1657.66 z" fill="rgb(76,47,12)" transform="translate(0,0)"/><path d="M 1234.16 1763.48 C 1254.24 1665.9 1273.5 1568.15 1291.94 1470.24 C 1297.73 1438.57 1303.32 1406.87 1308.7 1375.14 C 1310.27 1365.88 1317.06 1326.16 1319.61 1319.32 L 1320.79 1319.83 C 1321.45 1334.08 1322.95 1352.63 1324.8 1366.79 C 1327.48 1391.24 1329.59 1410.51 1330.25 1434.89 C 1332.16 1505.88 1309.85 1572.5 1287.82 1639.08 C 1273.99 1680.86 1261.1 1724.46 1246.26 1766.12 C 1282.87 1779.2 1338.68 1813.14 1318.56 1861.74 C 1317.17 1865.08 1309.58 1873.18 1306.94 1876.66 C 1315.73 1840.19 1298.96 1815.03 1268.18 1796.08 C 1229.79 1772.45 1178.46 1775.21 1136.37 1786.01 C 1162.96 1758.19 1198.57 1758.26 1234.16 1763.48 z" fill="rgb(76,47,12)" transform="translate(0,0)"/><path d="M 730.001 1321.68 C 732.776 1328.24 736.893 1354.55 738.385 1362.81 L 753.906 1447.65 C 773.857 1553.23 794.427 1658.69 815.614 1764.03 C 851.11 1757.07 886.681 1759.32 913.387 1786.14 C 872.181 1775.33 820.349 1772.44 782.127 1794.79 C 753.047 1811.79 734.219 1838.37 740.276 1873.15 C 731.763 1863.15 724.22 1852.31 725.717 1838.53 C 729.847 1800.53 771.326 1776.88 803.154 1766.55 L 761.563 1629.13 C 729.236 1522.07 716.177 1475.43 728.068 1362.63 C 727.647 1352.69 729.388 1332.45 730.001 1321.68 z" fill="rgb(76,47,12)" transform="translate(0,0)"/><path d="M 1286.39 1740.69 C 1300.16 1725.76 1314.24 1716.84 1334.51 1713.11 C 1343.11 1711.53 1368.85 1708.82 1376.78 1711.91 C 1374.06 1717.46 1372.63 1721.48 1370.35 1726.95 C 1370.19 1727.08 1332.93 1729.07 1327.5 1729.96 C 1311.97 1732.49 1301.27 1735.55 1286.39 1740.69 z" fill="rgb(76,47,12)" transform="translate(0,0)"/><path d="M 677.106 1714.33 C 711.488 1712.74 735.733 1714.79 761.666 1739.02 C 743.329 1733.42 724.18 1729.53 705.002 1728.11 C 701.754 1727.87 687.781 1728.1 685.648 1726.99 C 682.692 1722.85 679.843 1718.62 677.106 1714.33 z" fill="rgb(76,47,12)" transform="translate(0,0)"/><path d="M 1014.96 1159.38 C 1078.09 1151.94 1139.68 1209.51 1143.66 1271.36 C 1144.87 1290.25 1142.65 1309.19 1129.79 1324.02 C 1128.74 1294.09 1122.56 1279.8 1102.6 1257.09 C 1115.52 1320.62 1093.42 1378.29 1039.42 1415.03 C 1035.09 1417.63 1030.67 1419.89 1026.21 1422.24 C 975.231 1397.32 939.507 1352.65 938.053 1294 C 937.788 1283.3 938.578 1272.88 939.232 1262.21 C 918.876 1283.2 916.558 1291.84 910.571 1320.09 C 887.349 1246.09 938.466 1169.24 1014.96 1159.38 z" fill="rgb(231,206,184)" transform="translate(0,0)"/><path d="M 1142.5 150.994 C 1144.22 151.705 1148.02 153.039 1149.23 154.408 L 1149.25 154.556 C 1148.22 155.678 1141.55 154.362 1139.99 154.122 L 1142.5 150.994 z" fill="rgb(217,157,96)" transform="translate(0,0)"/><path d="M 1197.6 478.733 C 1243.37 472.944 1285.15 505.4 1290.87 551.183 C 1296.59 596.966 1264.06 638.697 1218.27 644.339 C 1172.58 649.967 1130.97 617.534 1125.26 571.856 C 1119.56 526.177 1151.93 484.509 1197.6 478.733 z" fill="rgb(76,47,12)" transform="translate(0,0)"/><path d="M 1208.18 501.535 C 1222.86 498.518 1237.2 507.994 1240.18 522.682 C 1243.16 537.37 1233.65 551.689 1218.96 554.637 C 1204.31 557.574 1190.05 548.103 1187.08 533.464 C 1184.11 518.825 1193.54 504.542 1208.18 501.535 z" fill="rgb(231,206,184)" transform="translate(0,0)"/><path d="M 836.009 478.636 C 881.994 475.182 922.063 509.684 925.475 555.672 C 928.887 601.661 894.349 641.698 848.358 645.068 C 802.425 648.435 762.45 613.951 759.042 568.021 C 755.634 522.091 790.082 482.085 836.009 478.636 z" fill="rgb(76,47,12)" transform="translate(0,0)"/><path d="M 834.287 502.084 C 848.867 498.788 863.351 507.965 866.597 522.556 C 869.843 537.148 860.616 551.6 846.013 554.796 C 831.481 557.976 817.114 548.804 813.884 534.283 C 810.654 519.762 819.777 505.364 834.287 502.084 z" fill="rgb(231,206,184)" transform="translate(0,0)"/><path d="M 844.845 385.311 C 879.141 382.649 910.496 400.292 923.968 432.507 C 888.837 424.584 864.954 421.596 829.247 428.938 C 802.666 436.052 790.687 442.915 768.165 457.313 C 780.404 419.039 804.196 392.623 844.845 385.311 z" fill="rgb(76,47,12)" transform="translate(0,0)"/><path d="M 1184.39 385.193 C 1217.01 382.443 1245.7 397.046 1264.9 423.537 C 1272.61 434.173 1277.11 446.825 1281.78 459.007 C 1265.72 446.691 1256.32 441.578 1237.26 434.477 C 1198.35 420.764 1165.14 422.154 1125.71 433.315 C 1138.82 406.361 1155.1 391.973 1184.39 385.193 z" fill="rgb(76,47,12)" transform="translate(0,0)"/><ellipse cx="1025" cy="735" rx="62" ry="50" fill="rgb(76,47,12)"/><ellipse cx="1025" cy="715" rx="34" ry="16" fill="rgb(150,120,95)" opacity="0.5"/><path d="M 1025 770 V 800" stroke="rgb(76,47,12)" stroke-width="16" stroke-linecap="round"/><path d="M 930 800 Q 1025 900 1120 800 Q 1110 960 1025 960 Q 940 960 930 800 Z" fill="rgb(76,47,12)"/><path d="M 995 880 Q 1025 970 1055 880 Q 1075 945 1025 968 Q 975 945 995 880 Z" fill="rgb(232,130,128)"/>
</svg>
